<svg width="32" height="32" viewBox="0 0 32 32" fill="none" xmlns="http://www.w3.org/2000/svg">
<path d="M32 11.8777C32 9.96364 30.4402 8.38595 28.5468 8.66616C26.6371 8.94878 24.7649 9.46543 22.9733 10.2075C20.1114 11.393 17.5111 13.1304 15.3208 15.3208C13.1304 17.5111 11.393 20.1114 10.2075 22.9733C9.46543 24.7649 8.94878 26.6371 8.66616 28.5468C8.38595 30.4402 9.96364 32 11.8777 32C13.7917 32 15.3072 30.432 15.7026 28.5593C15.914 27.5579 16.2177 26.5758 16.6112 25.6258C17.4483 23.6049 18.6752 21.7687 20.2219 20.2219C21.7687 18.6752 23.6049 17.4483 25.6258 16.6112C26.5758 16.2177 27.5579 15.914 28.5593 15.7025C30.432 15.3072 32 13.7917 32 11.8777Z" fill="#FFDF7D"/>
<path d="M3.82511 32C1.58784 32 -0.252118 30.1792 0.0283411 27.9596C0.920011 20.9027 4.12968 14.2961 9.2129 9.21289C14.2961 4.12967 20.9027 0.920009 27.9596 0.028341C30.1792 -0.252118 32 1.58784 32 3.82511C32 6.06238 30.1737 7.84136 27.9679 8.21529C23.0658 9.04632 18.5041 11.3795 14.9418 14.9418C11.3795 18.5041 9.04633 23.0658 8.2153 27.9679C7.84136 30.1737 6.06238 32 3.82511 32Z" fill="#1B1B1A"/>
</svg>
