<svg width="662" height="144" viewBox="0 0 662 144" fill="none" xmlns="http://www.w3.org/2000/svg">
<path d="M198.4 144C194.4 144 191.2 142.933 188.8 140.8C186.4 138.667 185.2 135.733 185.2 132V31.6C185.2 22.2667 187.867 15 193.2 9.8C198.667 4.6 206.2 2 215.8 2H278C282 2 285.067 2.93333 287.2 4.8C289.333 6.53333 290.4 9.06667 290.4 12.4C290.4 15.6 289.267 18.1333 287 20C284.867 21.7333 281.867 22.6 278 22.6H220.4C217.733 22.6 215.6 23.4667 214 25.2C212.533 26.9333 211.8 29.3333 211.8 32.4V62.2H262.8C266.8 62.2 269.867 63.1333 272 65C274.133 66.7333 275.2 69.2667 275.2 72.6C275.2 75.8 274.067 78.3333 271.8 80.2C269.667 81.9333 266.667 82.8 262.8 82.8H211.8V132C211.8 135.6 210.533 138.533 208 140.8C205.6 142.933 202.4 144 198.4 144Z" fill="#1B1B1A"/>
<path d="M336.347 144C322.614 144 311.88 140.067 304.147 132.2C296.547 124.2 292.747 113.133 292.747 99V54C292.747 50.2667 293.947 47.3333 296.347 45.2C298.747 43.0667 301.947 42 305.947 42C310.08 42 313.28 43.0667 315.547 45.2C317.814 47.3333 318.947 50.2667 318.947 54V99C318.947 106.6 320.947 112.533 324.947 116.8C329.08 121.067 334.814 123.2 342.147 123.2C351.614 123.2 358.947 120.2 364.147 114.2C369.48 108.2 372.147 99.9333 372.147 89.4V54C372.147 50.2667 373.347 47.3333 375.747 45.2C378.147 43.0667 381.347 42 385.347 42C389.48 42 392.68 43.0667 394.947 45.2C397.214 47.3333 398.347 50.2667 398.347 54V132C398.347 135.867 397.214 138.867 394.947 141C392.814 143 389.747 144 385.747 144C381.747 144 378.614 142.933 376.347 140.8C374.08 138.667 372.947 135.733 372.947 132V126.2C368.014 132.333 362.547 136.867 356.547 139.8C350.68 142.6 343.947 144 336.347 144Z" fill="#1B1B1A"/>
<path d="M429.794 144C425.66 144 422.46 142.933 420.194 140.8C417.927 138.667 416.794 135.733 416.794 132V54C416.794 50.1333 417.86 47.2 419.994 45.2C422.26 43.0667 425.394 42 429.394 42C433.394 42 436.527 43.0667 438.794 45.2C441.06 47.3333 442.194 50.2667 442.194 54V60.6C446.327 55.2667 451.127 51.2 456.594 48.4C462.194 45.4667 468.194 44 474.594 44H478.994C483.26 44 486.527 44.9333 488.794 46.8C491.194 48.5333 492.394 51.0667 492.394 54.4C492.394 57.7333 491.194 60.3333 488.794 62.2C486.527 63.9333 483.26 64.8 478.994 64.8H472.194C463.26 64.8 456.127 67.6667 450.794 73.4C445.594 79 442.994 86.7333 442.994 96.6V132C442.994 135.733 441.794 138.667 439.394 140.8C436.994 142.933 433.794 144 429.794 144Z" fill="#1B1B1A"/>
<path d="M517.88 144C513.746 144 510.546 142.933 508.28 140.8C506.013 138.667 504.88 135.733 504.88 132V54C504.88 50.1333 505.946 47.2 508.08 45.2C510.346 43.0667 513.48 42 517.48 42C521.48 42 524.613 43.0667 526.88 45.2C529.146 47.3333 530.28 50.2667 530.28 54V59.8C539.746 47.9333 552.68 42 569.08 42C581.88 42 591.946 46.0667 599.28 54.2C606.746 62.2 610.48 73.1333 610.48 87V132C610.48 135.733 609.28 138.667 606.88 140.8C604.48 142.933 601.28 144 597.28 144C593.146 144 589.946 142.933 587.68 140.8C585.413 138.667 584.28 135.733 584.28 132V87C584.28 79.4 582.413 73.4667 578.68 69.2C574.946 64.9333 569.746 62.8 563.08 62.8C552.946 62.8 545.08 65.8 539.48 71.8C533.88 77.6667 531.08 85.9333 531.08 96.6V132C531.08 135.733 529.88 138.667 527.48 140.8C525.08 142.933 521.88 144 517.88 144Z" fill="#1B1B1A"/>
<path d="M644.327 29.6C639.393 29.6 635.393 28.2667 632.327 25.6C629.393 22.8 627.927 19.2 627.927 14.8C627.927 10.4 629.393 6.86667 632.327 4.20001C635.393 1.4 639.393 0 644.327 0C649.26 0 653.26 1.4 656.327 4.20001C659.527 6.86667 661.127 10.4 661.127 14.8C661.127 19.2 659.527 22.8 656.327 25.6C653.26 28.2667 649.26 29.6 644.327 29.6ZM644.527 144C640.393 144 637.193 142.933 634.927 140.8C632.66 138.667 631.527 135.733 631.527 132V54C631.527 50.2667 632.66 47.3333 634.927 45.2C637.193 43.0667 640.393 42 644.527 42C648.527 42 651.727 43.0667 654.127 45.2C656.527 47.3333 657.727 50.2667 657.727 54V132C657.727 135.733 656.527 138.667 654.127 140.8C651.727 142.933 648.527 144 644.527 144Z" fill="#1B1B1A"/>
<path d="M142 54.7071C142 46.2137 135.078 39.2126 126.676 40.4561C118.202 41.7102 109.894 44.0028 101.944 47.296C89.2445 52.5562 77.7056 60.2663 67.986 69.986C58.2663 79.7056 50.5562 91.2445 45.296 103.944C42.0028 111.894 39.7102 120.202 38.4561 128.676C37.2127 137.078 44.2137 144 52.7071 144C61.2006 144 67.9256 137.042 69.6801 128.732C70.6182 124.288 71.966 119.93 73.7123 115.714C77.4268 106.747 82.8713 98.5984 89.7349 91.7349C96.5984 84.8713 104.747 79.4268 113.714 75.7123C117.93 73.966 122.288 72.6182 126.732 71.6801C135.042 69.9256 142 63.2006 142 54.7071Z" fill="#FFDF7D"/>
<path d="M16.9739 144C7.04602 144 -1.11877 135.92 0.125764 126.071C4.08255 94.7556 18.3254 65.439 40.8822 42.8822C63.439 20.3254 92.7556 6.08254 124.071 2.12576C133.92 0.881228 142 9.04602 142 18.9739C142 28.9018 133.896 36.796 124.108 38.4554C102.355 42.1431 82.1119 52.4964 66.3042 68.3042C50.4964 84.1119 40.1431 104.354 36.4554 126.108C34.796 135.896 26.9018 144 16.9739 144Z" fill="#1B1B1A"/>
</svg>
