<svg width="512" height="512" viewBox="0 0 512 512" fill="none" xmlns="http://www.w3.org/2000/svg">
<path d="M512 190.043C512 159.418 487.043 134.175 456.749 138.659C426.193 143.18 396.239 151.447 367.572 163.321C321.783 182.287 280.178 210.087 245.132 245.132C210.087 280.178 182.287 321.783 163.321 367.572C151.447 396.238 143.181 426.193 138.659 456.749C134.175 487.043 159.418 512 190.043 512C220.667 512 244.915 486.912 251.241 456.949C254.623 440.927 259.483 425.213 265.78 410.012C279.173 377.678 298.804 348.298 323.551 323.551C348.299 298.804 377.678 279.173 410.012 265.78C425.213 259.483 440.927 254.623 456.949 251.241C486.912 244.915 512 220.667 512 190.043Z" fill="#FFDF7D"/>
<path d="M61.2017 512C25.4054 512 -4.03389 482.867 0.453457 447.353C14.7202 334.443 66.0748 228.738 147.406 147.406C228.738 66.0748 334.443 14.7202 447.353 0.453456C482.867 -4.03388 512 25.4054 512 61.2017C512 96.9981 482.779 125.462 447.486 131.445C369.053 144.741 296.066 182.072 239.069 239.069C182.072 296.066 144.741 369.053 131.445 447.486C125.462 482.779 96.9981 512 61.2017 512Z" fill="#1B1B1A"/>
</svg>
